<mxfile host="app.diagrams.net" modified="2023-05-25T15:00:04.574Z" agent="Mozilla/5.0 (Windows NT 10.0; Win64; x64) AppleWebKit/537.36 (KHTML, like Gecko) Chrome/113.0.0.0 Safari/537.36" etag="Ix44ZalqGU7PY9fFEt5P" version="21.2.9" type="device">
  <diagram name="Page-1" id="wG474OFWXvd6E2WIAW7N">
    <mxGraphModel dx="2607" dy="1271" grid="1" gridSize="10" guides="1" tooltips="1" connect="1" arrows="1" fold="1" page="1" pageScale="1" pageWidth="827" pageHeight="1169" math="0" shadow="0">
      <root>
        <mxCell id="0" />
        <mxCell id="1" parent="0" />
        <mxCell id="-ID0I0zZU8n9CK_9Ssc_-2" value="" style="whiteSpace=wrap;html=1;" parent="1" vertex="1">
          <mxGeometry x="143" y="105" width="540" height="960" as="geometry" />
        </mxCell>
        <mxCell id="LG56hh-U7er9lUFyQT3B-2" value="&lt;font style=&quot;font-size: 76px;&quot;&gt;ADVERTISING IMAGE&lt;/font&gt;" style="rounded=0;whiteSpace=wrap;html=1;" vertex="1" parent="1">
          <mxGeometry x="150" y="120" width="520" height="750" as="geometry" />
        </mxCell>
        <mxCell id="LG56hh-U7er9lUFyQT3B-3" value="&lt;font style=&quot;font-size: 36px;&quot;&gt;Ready to order button&lt;/font&gt;" style="rounded=0;whiteSpace=wrap;html=1;" vertex="1" parent="1">
          <mxGeometry x="150" y="880" width="520" height="80" as="geometry" />
        </mxCell>
        <mxCell id="LG56hh-U7er9lUFyQT3B-4" value="Languages Button" style="rounded=0;whiteSpace=wrap;html=1;" vertex="1" parent="1">
          <mxGeometry x="150" y="970" width="260" height="70" as="geometry" />
        </mxCell>
        <mxCell id="LG56hh-U7er9lUFyQT3B-5" value="Accessibility Help" style="rounded=0;whiteSpace=wrap;html=1;" vertex="1" parent="1">
          <mxGeometry x="414" y="970" width="256" height="70" as="geometry" />
        </mxCell>
      </root>
    </mxGraphModel>
  </diagram>
</mxfile>
